<?xml version="1.0" standalone="no"?>
<!DOCTYPE svg PUBLIC "-//W3C//DTD SVG 20010904//EN"
 "http://www.w3.org/TR/2001/REC-SVG-20010904/DTD/svg10.dtd">
<svg version="1.0" xmlns="http://www.w3.org/2000/svg"
 width="414.000000pt" height="414.000000pt" viewBox="0 0 414.000000 414.000000"
 preserveAspectRatio="xMidYMid meet">
<metadata>
Created by potrace 1.14, written by Peter Selinger 2001-2017
</metadata>
<g transform="translate(0.000000,414.000000) scale(0.100000,-0.100000)"
fill="#000000" stroke="none">
<path d="M4084 3022 c-12 -10 -34 -28 -50 -41 -113 -92 -341 -224 -524 -304
-86 -37 -277 -102 -327 -111 -16 -2 -59 -11 -98 -19 -38 -9 -90 -18 -115 -21
-25 -4 -61 -9 -80 -11 -115 -16 -453 -41 -670 -50 -47 -2 -148 -6 -225 -10
-77 -3 -196 -8 -265 -10 -69 -2 -130 -4 -136 -4 -20 -2 -103 -260 -119 -371
-4 -24 -8 -47 -10 -50 -7 -12 -18 -133 -20 -222 -5 -238 56 -415 187 -540 48
-45 197 -128 232 -128 9 0 25 -4 34 -9 15 -8 50 -14 150 -26 28 -4 28 -4 -4
42 -24 35 -45 77 -81 163 -8 19 -19 43 -24 53 -14 26 -5 22 74 -36 137 -100
242 -156 378 -201 120 -40 182 -50 294 -48 101 2 235 31 235 51 0 3 -47 37
-104 75 -102 66 -185 139 -141 121 145 -56 293 -84 430 -80 137 4 202 20 321
77 63 31 180 116 171 125 -3 2 -38 6 -79 9 -40 2 -89 6 -108 9 -37 5 -142 36
-138 40 2 1 35 5 73 8 202 18 398 141 530 334 49 71 129 228 140 275 l7 27
-69 -28 c-92 -38 -255 -62 -269 -40 -3 5 1 9 9 9 40 0 148 117 204 221 57 104
139 334 157 439 2 14 9 43 14 65 16 60 44 226 39 231 -1 1 -12 -5 -23 -14z"/>
<path d="M350 2322 c-52 -6 -170 -34 -171 -40 0 -4 -2 -16 -4 -27 -2 -11 -6
-38 -10 -60 -3 -22 -7 -50 -9 -61 -2 -12 -7 -39 -10 -60 -8 -47 -34 -199 -41
-234 -3 -14 -9 -47 -15 -75 -14 -66 -22 -107 -35 -176 l-7 -36 80 21 c44 12
83 24 86 27 6 6 24 95 41 194 4 22 8 47 10 55 2 8 4 18 4 23 2 16 21 5 21 -13
0 -10 6 -43 14 -72 31 -117 57 -213 59 -214 1 -1 39 11 85 26 l83 29 -3 -37
c-2 -23 1 -36 8 -35 6 1 33 5 60 9 27 3 57 8 67 10 10 2 55 8 100 15 45 6 86
15 90 19 5 4 11 33 13 65 5 51 4 56 -13 51 -40 -12 -133 -18 -133 -8 0 29 34
168 42 173 5 3 37 6 70 7 33 0 61 2 62 4 2 1 7 29 10 61 l7 57 -71 -3 -71 -4
5 26 c2 14 10 55 16 92 l13 65 75 2 c42 2 78 4 80 6 2 3 8 24 13 48 5 24 12
51 15 61 5 17 1 18 -53 13 -32 -3 -96 -8 -143 -12 -82 -7 -118 -10 -132 -13
-3 0 -10 -25 -14 -53 -4 -29 -8 -55 -9 -58 -3 -13 -19 -97 -20 -110 -2 -16
-25 -138 -40 -210 -2 -14 -7 -41 -10 -60 -9 -56 -26 -144 -31 -160 -3 -9 -13
4 -26 35 -11 28 -30 70 -41 95 -11 25 -28 65 -39 89 l-19 45 46 39 c86 73 137
177 128 261 -8 81 -42 107 -140 110 -37 0 -79 0 -93 -2z m101 -158 c33 -20
-22 -88 -104 -130 l-48 -25 5 33 c3 18 8 47 12 63 3 17 7 35 8 40 5 30 19 36
68 31 27 -3 54 -9 59 -12z"/>
<path d="M1125 2318 c-85 -10 -104 -13 -111 -21 -6 -6 -47 -224 -60 -317 -3
-25 -8 -47 -9 -50 -2 -3 -6 -25 -10 -50 -4 -25 -8 -47 -10 -50 -2 -3 -6 -23
-9 -45 -4 -22 -15 -80 -25 -130 -10 -49 -16 -94 -13 -99 2 -5 39 -6 80 -3 170
13 323 142 402 341 27 68 33 93 44 191 6 59 -26 156 -61 187 -53 46 -113 59
-218 46z m95 -168 c21 -21 23 -32 20 -89 -2 -46 -43 -168 -80 -241 -28 -56
-88 -135 -96 -127 -2 2 2 39 11 83 8 43 16 90 19 104 2 14 9 43 14 65 6 22 14
56 17 75 4 19 8 40 9 45 2 6 6 28 11 50 4 22 10 43 12 48 8 14 43 7 63 -13z"/>
</g>
</svg>
